<svg width="72" height="72" viewBox="0 0 72 72" fill="none" xmlns="http://www.w3.org/2000/svg">
<g clip-path="url(#clip0_213_9)">
<rect width="72" height="72" rx="36" fill="#FF3300"/>
<path d="M52 42.0003C52 50.8368 44.8366 58.0003 36 58.0003C27.1634 58.0003 20 50.8368 20 42.0003C20 31.4754 30.7562 18.828 34.6302 14.6141C35.3776 13.8012 36.6224 13.8012 37.3697 14.6141C41.2438 18.8279 52 31.4754 52 42.0003Z" fill="white"/>
<mask id="mask0_213_9" style="mask-type:alpha" maskUnits="userSpaceOnUse" x="20" y="14" width="32" height="44">
<path d="M52 42.0003C52 50.8368 44.8366 58.0003 36 58.0003C27.1634 58.0003 20 50.8368 20 42.0003C20 32.1343 29.4515 20.4033 33.826 15.5022C34.5098 14.7361 34.8517 14.353 35.339 14.1823C35.7375 14.0428 36.2625 14.0428 36.661 14.1823C37.1483 14.353 37.4902 14.7361 38.174 15.5022C42.5485 20.4033 52 32.1343 52 42.0003Z" fill="white"/>
</mask>
<g mask="url(#mask0_213_9)">
<path d="M39.5 36H45.5M45.5 36V42M45.5 36L38.2627 43.2373C37.4707 44.0293 37.0747 44.4253 36.618 44.5737C36.2163 44.7042 35.7837 44.7042 35.382 44.5737C34.9253 44.4253 34.5293 44.0293 33.7373 43.2373L33.2627 42.7627C32.4707 41.9707 32.0747 41.5747 31.618 41.4263C31.2163 41.2958 30.7837 41.2958 30.382 41.4263C29.9253 41.5747 29.5293 41.9707 28.7373 42.7627L21.5 50" stroke="url(#paint0_linear_213_9)" stroke-width="2.5" stroke-linecap="round" stroke-linejoin="round"/>
</g>
</g>
<defs>
<linearGradient id="paint0_linear_213_9" x1="41.5" y1="29.5" x2="22" y2="49" gradientUnits="userSpaceOnUse">
<stop stop-color="#B80000"/>
<stop offset="1" stop-color="#FF3300"/>
</linearGradient>
<clipPath id="clip0_213_9">
<rect width="72" height="72" fill="white"/>
</clipPath>
</defs>
</svg>
